<svg xmlns="http://www.w3.org/2000/svg" viewBox="0 0 600 180" preserveAspectRatio="xMidYMid meet">
  <defs>
    <linearGradient id="tealGrad" x1="0%" y1="0%" x2="100%" y2="100%">
      <stop offset="0%" style="stop-color:#00d9e1"/>
      <stop offset="100%" style="stop-color:#00b8c0"/>
    </linearGradient>
  </defs>

  <!-- Background swoosh shape -->
  <path d="M 30 90
           Q 60 30, 150 40
           Q 300 20, 450 45
           Q 540 55, 570 90
           Q 540 140, 450 145
           Q 300 160, 150 140
           Q 60 130, 30 90 Z"
        fill="url(#tealGrad)" opacity="0.9"/>

  <!-- Yellow decorative swirls - left side -->
  <path d="M 25 85 Q 5 50, 40 30 Q 75 10, 100 40 Q 115 60, 90 75 Q 65 90, 50 70"
        fill="none" stroke="#fdca15" stroke-width="4" stroke-linecap="round"/>
  <path d="M 45 55 Q 60 35, 85 50"
        fill="none" stroke="#fdca15" stroke-width="3" stroke-linecap="round"/>
  <path d="M 20 100 Q -5 110, 10 130 Q 25 150, 55 140 Q 75 130, 60 110"
        fill="none" stroke="#fdca15" stroke-width="3.5" stroke-linecap="round"/>
  <circle cx="35" cy="25" r="5" fill="#fdca15"/>
  <circle cx="70 " cy="140" r="4" fill="#fdca15"/>

  <!-- Yellow decorative swirls - right side -->
  <path d="M 575 85 Q 595 50, 560 30 Q 525 10, 500 40 Q 485 60, 510 75 Q 535 90, 550 70"
        fill="none" stroke="#fdca15" stroke-width="4" stroke-linecap="round"/>
  <path d="M 555 55 Q 540 35, 515 50"
        fill="none" stroke="#fdca15" stroke-width="3" stroke-linecap="round"/>
  <path d="M 580 100 Q 605 110, 590 130 Q 575 150, 545 140 Q 525 130, 540 110"
        fill="none" stroke="#fdca15" stroke-width="3.5" stroke-linecap="round"/>
  <circle cx="565" cy="25" r="5" fill="#fdca15"/>
  <circle cx="530" cy="140" r="4" fill="#fdca15"/>

  <!-- Yellow flourish under text -->
  <path d="M 100 120 Q 200 150, 300 135 Q 400 120, 500 145"
        fill="none" stroke="#fdca15" stroke-width="5" stroke-linecap="round"/>
  <path d="M 120 130 Q 220 155, 300 142 Q 380 130, 480 150"
        fill="none" stroke="#fdca15" stroke-width="3" stroke-linecap="round" opacity="0.7"/>

  <!-- Yellow top flourish -->
  <path d="M 180 35 Q 250 15, 300 25 Q 350 15, 420 35"
        fill="none" stroke="#fdca15" stroke-width="3" stroke-linecap="round"/>
  <path d="M 220 28 Q 260 18, 300 22 Q 340 18, 380 28"
        fill="none" stroke="#fdca15" stroke-width="2" stroke-linecap="round" opacity="0.7"/>

  <!-- Small yellow decorative swirls around text -->
  <path d="M 130 70 Q 145 55, 155 70 Q 165 85, 150 90"
        fill="none" stroke="#fdca15" stroke-width="2.5" stroke-linecap="round"/>
  <path d="M 470 70 Q 455 55, 445 70 Q 435 85, 450 90"
        fill="none" stroke="#fdca15" stroke-width="2.5" stroke-linecap="round"/>

  <!-- Main text: "Fast" -->
  <text x="115" y="95" font-family="Georgia, 'Times New Roman', serif" font-size="52" font-weight="bold" font-style="italic" fill="#014362" letter-spacing="-1">Fast</text>

  <!-- Decorative "by" with swirl -->
  <path d="M 248 75 Q 270 55, 290 65 Q 305 72, 295 85 Q 285 95, 265 88"
        fill="none" stroke="#fdca15" stroke-width="2.5" stroke-linecap="round"/>
  <text x="258" y="95" font-family="Georgia, 'Times New Roman', serif" font-size="30" font-style="italic" fill="#014362" opacity="0.85">by</text>

  <!-- Main text: "Default" -->
  <text x="310" y="95" font-family="Georgia, 'Times New Roman', serif" font-size="52" font-weight="bold" font-style="italic" fill="#014362" letter-spacing="-1">Default</text>

  <!-- Small accent dots -->
  <circle cx="300" cy="45" r="4" fill="#014362" opacity="0.6"/>
  <circle cx="105" cy="80" r="3" fill="#014362" opacity="0.5"/>
  <circle cx="495" cy="80" r="3" fill="#014362" opacity="0.5"/>

  <!-- Additional yellow spiral accents -->
  <path d="M 200 105 Q 210 115, 205 125 Q 195 130, 190 120"
        fill="none" stroke="#fdca15" stroke-width="2" stroke-linecap="round" opacity="0.8"/>
  <path d="M 400 105 Q 390 115, 395 125 Q 405 130, 410 120"
        fill="none" stroke="#fdca15" stroke-width="2" stroke-linecap="round" opacity="0.8"/>
</svg>