<svg xmlns="http://www.w3.org/2000/svg" xmlns:xlink="http://www.w3.org/1999/xlink" width="500" zoomAndPan="magnify" viewBox="0 0 375 374.999991" height="500" preserveAspectRatio="xMidYMid meet" version="1.0"><defs><clipPath id="10d8f1c313"><path d="M 48.074219 70.316406 L 327.074219 70.316406 L 327.074219 281.066406 L 48.074219 281.066406 Z M 48.074219 70.316406 " clip-rule="nonzero"/></clipPath></defs><rect x="-37.5" width="450" fill="#ffffff" y="-37.499999" height="449.999989" fill-opacity="1"/><rect x="-37.5" width="450" fill="#ffffff" y="-37.499999" height="449.999989" fill-opacity="1"/><g clip-path="url(#10d8f1c313)"><path fill="#ffffff" d="M 323.882812 129.8125 C 323.84375 129.703125 323.820312 129.585938 323.820312 129.46875 C 323.703125 113.652344 316.230469 85.417969 288.023438 82.785156 C 265.375 80.667969 251.304688 85.46875 244.46875 88.875 C 244.117188 89.050781 243.722656 89.023438 243.394531 88.808594 C 238.886719 85.835938 231.382812 82.125 222.898438 82.933594 C 215.621094 83.640625 209.359375 87.46875 204.289062 94.316406 L 203.886719 94.933594 C 203.636719 95.371094 202.214844 98.003906 201.605469 102.539062 C 201.519531 103.171875 200.960938 103.601562 200.332031 103.503906 C 196.355469 102.886719 191.464844 102.660156 186.015625 103.507812 C 185.742188 103.550781 185.46875 103.496094 185.238281 103.335938 C 180.699219 100.214844 171.535156 95.46875 160.550781 98.203125 C 153.25 100.019531 148.835938 102.585938 146.171875 104.9375 C 145.921875 105.160156 145.609375 105.257812 145.28125 105.203125 C 142.585938 104.757812 138.902344 104.285156 134.761719 104.140625 C 134.066406 104.113281 133.597656 103.546875 133.703125 102.859375 C 134.496094 97.695312 134.449219 91.363281 131.609375 85.523438 C 128.140625 78.394531 121.527344 73.652344 111.953125 71.429688 C 99.007812 68.421875 86.835938 71.5625 77.667969 80.261719 C 69.050781 88.4375 64.117188 100.8125 64.675781 112.179688 C 64.691406 112.496094 64.578125 112.789062 64.351562 113.003906 C 58.570312 118.515625 47.542969 132.039062 48.121094 154.589844 C 48.675781 176.347656 64.046875 188.117188 73.507812 193.316406 C 73.976562 193.574219 74.175781 194.117188 74.011719 194.625 C 72.929688 197.949219 72.441406 201.152344 72.136719 203.882812 C 71.800781 207.035156 71.703125 210.410156 71.84375 214.226562 C 72.058594 219.601562 72.570312 223.957031 73.460938 227.953125 C 75.042969 234.976562 77.613281 240.753906 81.320312 245.625 C 85.832031 251.519531 91.015625 255.238281 97.109375 256.972656 C 103.285156 258.800781 145.4375 271.355469 170.410156 278.804688 C 175.441406 280.304688 180.65625 281.066406 185.902344 281.066406 C 192.449219 281.066406 198.871094 279.894531 205 277.589844 C 248.015625 261.398438 281.929688 248.960938 281.929688 248.960938 C 282.40625 248.816406 282.726562 248.367188 282.714844 247.871094 L 282.597656 243.886719 C 282.597656 243.886719 282.480469 239.617188 282.429688 237.824219 C 282.417969 237.375 282.683594 236.964844 283.097656 236.789062 C 284.769531 236.066406 286.433594 235.339844 288.066406 234.59375 C 294.175781 231.828125 298.574219 227.203125 300.777344 221.21875 C 302.679688 216.0625 302.722656 210.535156 300.898438 204.78125 C 299.660156 200.886719 297.65625 197.160156 294.828125 193.464844 C 294.464844 192.992188 294.523438 192.320312 294.984375 191.945312 C 297.125 190.195312 302.824219 185.542969 304.34375 184.300781 C 304.578125 184.109375 304.675781 183.804688 304.609375 183.511719 L 303.816406 180.160156 C 303.59375 179.214844 303.347656 178.1875 303.078125 177.121094 C 302.9375 176.570312 303.234375 176.007812 303.765625 175.8125 C 310.003906 173.535156 318.300781 169.09375 323.144531 160.730469 C 328.089844 152.195312 328.335938 141.800781 323.882812 129.8125 Z M 312.257812 154.363281 C 308.953125 160.117188 302.417969 163.0625 298.066406 164.445312 C 297.660156 164.574219 297.230469 164.441406 296.941406 164.132812 C 295.964844 163.085938 294.890625 162.132812 293.695312 161.289062 C 289.691406 158.453125 285.351562 157.015625 280.796875 157.015625 C 277.363281 157.015625 273.832031 157.847656 270.324219 159.484375 C 268.347656 160.398438 266.65625 161.546875 265.203125 162.769531 C 264.730469 163.171875 264.023438 163.0625 263.636719 162.574219 C 262.777344 161.492188 261.8125 160.46875 260.742188 159.507812 C 254.546875 153.933594 247.164062 152.261719 242.171875 151.496094 C 240.484375 151.230469 237.917969 151.097656 234.335938 151.097656 C 234.082031 151.097656 233.835938 151.101562 233.589844 151.101562 L 232.757812 149.28125 L 232.8125 148.390625 L 232.339844 148.363281 L 231.734375 147.046875 L 185.988281 144.589844 C 185.53125 144.566406 185.105469 144.828125 184.917969 145.242188 L 182.984375 149.582031 C 182.800781 149.992188 182.390625 150.253906 181.9375 150.234375 C 178.84375 150.101562 171.253906 149.773438 168.410156 149.652344 C 167.800781 149.625 167.289062 150.082031 167.261719 150.691406 C 167.066406 155.0625 166.332031 171.328125 166.105469 176.324219 C 165.902344 175.769531 165.695312 175.210938 165.488281 174.652344 L 165.332031 173.417969 L 164.984375 173.28125 C 164.792969 172.761719 164.601562 172.242188 164.410156 171.722656 C 162.179688 165.691406 160.078125 159.996094 159.378906 157.808594 L 158.074219 153.703125 C 157.910156 153.195312 157.414062 152.878906 156.886719 152.941406 L 152.609375 153.460938 C 141.105469 154.863281 129.65625 156.261719 118.210938 157.664062 L 113.441406 158.246094 L 108.9375 158.785156 C 108.386719 158.851562 107.972656 159.3125 107.964844 159.867188 L 107.902344 164.402344 C 107.890625 164.648438 107.863281 165.160156 107.949219 165.929688 L 108.898438 173.121094 C 108.996094 173.863281 108.335938 174.503906 107.605469 174.347656 C 106.226562 174.050781 104.8125 173.898438 103.378906 173.898438 C 99.492188 173.898438 95.53125 175.042969 91.921875 177.203125 C 91.816406 177.265625 91.710938 177.332031 91.605469 177.390625 C 91.269531 177.445312 90.925781 177.523438 90.679688 177.589844 C 87.199219 178.46875 84.152344 180.125 81.546875 182.492188 C 81.203125 182.800781 80.714844 182.886719 80.304688 182.671875 C 73.417969 179.0625 61.144531 170.390625 60.734375 154.265625 C 60.152344 131.429688 74.40625 120.878906 74.980469 120.464844 L 77.699219 118.558594 C 78.050781 118.3125 78.226562 117.886719 78.152344 117.460938 L 77.570312 114.195312 C 76.09375 105.90625 79.707031 95.710938 86.351562 89.40625 C 90.59375 85.382812 97.984375 81.128906 109.101562 83.710938 C 114.847656 85.042969 118.492188 87.425781 120.246094 91 C 123.140625 96.890625 120.460938 105.417969 119.191406 108.183594 L 115.160156 116.804688 C 114.789062 117.59375 115.441406 118.480469 116.304688 118.367188 L 125.742188 117.101562 C 136.058594 115.722656 146.703125 118.320312 146.804688 118.34375 L 151.609375 119.550781 C 152.179688 119.695312 152.761719 119.367188 152.933594 118.804688 L 154.097656 114.972656 C 154.15625 114.785156 154.253906 114.625 154.394531 114.492188 C 155.210938 113.714844 157.632812 111.921875 163.597656 110.4375 C 172.257812 108.269531 179.617188 114.878906 179.660156 114.917969 L 181.691406 116.828125 C 181.960938 117.078125 182.339844 117.179688 182.699219 117.097656 L 185.414062 116.460938 C 196.683594 113.832031 205.28125 117.835938 205.324219 117.855469 L 214.546875 122.429688 C 215.359375 122.832031 216.28125 122.140625 216.125 121.25 L 214.335938 111.113281 C 213.414062 105.882812 214.304688 102.648438 214.722656 101.507812 C 214.765625 101.394531 214.828125 101.292969 214.902344 101.195312 C 217.660156 97.703125 220.664062 95.832031 224.070312 95.484375 C 230.34375 94.839844 237.160156 99.574219 239.234375 101.429688 L 242.480469 104.484375 C 242.882812 104.863281 243.503906 104.886719 243.933594 104.539062 L 247.398438 101.714844 C 247.515625 101.625 259.378906 92.773438 286.851562 95.339844 C 311.503906 97.636719 311.222656 129.3125 311.199219 130.648438 L 311.167969 131.925781 L 311.640625 133.113281 C 315.113281 141.875 315.324219 149.019531 312.257812 154.363281 Z M 312.257812 154.363281 " fill-opacity="1" fill-rule="nonzero"/></g><path fill="#00d9e1" d="M 92.21875 183.707031 L 115.96875 151.480469 L 257.421875 146.253906 L 292.78125 170.136719 L 295.953125 179.992188 L 283.714844 192.226562 C 283.714844 192.226562 288.183594 197.246094 291.535156 201.96875 C 294.886719 206.695312 297.34375 218.714844 290.289062 224.285156 C 283.234375 229.851562 275.101562 230.515625 275.101562 230.515625 L 274.761719 243.085938 L 104.15625 251.136719 C 104.15625 251.136719 82.820312 249.253906 79.910156 221.539062 C 77 193.820312 88.125 186.808594 88.125 186.808594 Z M 92.21875 183.707031 " fill-opacity="1" fill-rule="nonzero"/><path fill="#fdca15" d="M 294.675781 171.765625 C 294.675781 171.765625 331.640625 166.421875 317.503906 130.789062 C 317.503906 130.789062 318.375 91.949219 287.4375 89.0625 C 256.5 86.175781 243.480469 96.773438 243.480469 96.773438 C 243.480469 96.773438 223.6875 78.722656 209.359375 98.066406 C 209.359375 98.066406 206.507812 103.039062 208.125 112.210938 C 208.125 112.210938 197.796875 107.085938 183.976562 110.324219 C 183.976562 110.324219 174.328125 101.269531 162.074219 104.320312 C 149.820312 107.367188 148.339844 112.230469 148.339844 112.230469 C 148.339844 112.230469 136.625 109.289062 124.90625 110.855469 C 124.90625 110.855469 137.542969 83.84375 110.527344 77.570312 C 83.511719 71.296875 68.164062 97.371094 71.355469 115.300781 C 71.355469 115.300781 53.742188 127.636719 54.425781 154.429688 C 55.109375 181.226562 82.796875 190.683594 82.796875 190.683594 L 98.519531 182.289062 L 108.816406 182.863281 L 115.941406 188.683594 L 126.957031 188.121094 L 125.105469 178.449219 L 116.535156 173.972656 L 116.015625 165.734375 L 152.285156 161 L 155.929688 176.558594 L 159.554688 177.953125 L 161.203125 190.71875 L 162.636719 195.960938 L 172.445312 196.71875 L 174.554688 157.5 L 185.308594 158.59375 L 186.671875 186.945312 L 190.542969 152.09375 L 226.140625 154.300781 L 225.21875 169.890625 L 231.230469 158.589844 C 231.230469 158.589844 244.613281 158.515625 251.371094 162.171875 C 258.132812 165.824219 260.898438 171.953125 261.546875 176.871094 C 262.195312 181.785156 262.195312 181.785156 262.195312 181.785156 C 262.195312 181.785156 267.210938 161.910156 283.007812 164.652344 L 294.675781 171.765625 " fill-opacity="1" fill-rule="nonzero"/><path fill="#014362" d="M 89.960938 177.980469 C 96.132812 178.0625 101.722656 176.117188 105.859375 172.40625 C 110.15625 168.5625 112.59375 163.035156 112.742188 156.886719 C 112.9375 149.285156 107.277344 144.738281 101.585938 144.164062 C 98.636719 143.875 95.742188 144.605469 93.429688 146.253906 C 90.835938 148.105469 89.144531 150.917969 88.527344 154.425781 L 88.085938 156.964844 L 93.183594 157.847656 L 93.625 155.3125 C 94.484375 150.421875 98.183594 149.019531 101.085938 149.308594 C 104.394531 149.625 107.699219 152.074219 107.570312 156.769531 C 107.460938 161.488281 105.609375 165.6875 102.390625 168.570312 C 98.898438 171.722656 93.929688 173.199219 88.394531 172.742188 C 82.839844 172.28125 78.195312 169.699219 74.964844 165.277344 C 71.019531 159.867188 69.578125 152.246094 71.167969 145.367188 C 73.261719 136.386719 79.019531 130.585938 88.269531 128.121094 C 95.265625 126.265625 101.816406 127.035156 102.246094 127.085938 C 102.269531 127.085938 102.269531 127.085938 102.292969 127.085938 L 102.972656 121.964844 C 102.949219 121.964844 102.925781 121.964844 102.90625 121.964844 C 98.78125 121.410156 94.097656 118.511719 91.21875 114.75 C 89.5 112.503906 87.574219 108.847656 88.179688 104.246094 C 88.808594 99.582031 90.808594 96.15625 94.082031 94.070312 C 98.617188 91.179688 104.515625 91.460938 107.390625 92.363281 C 111.527344 93.644531 115.363281 97.167969 113.980469 101.824219 C 113.433594 103.632812 111.851562 104.949219 109.917969 105.199219 C 107.871094 105.441406 106 104.375 104.78125 102.292969 L 103.46875 100.074219 L 99.007812 102.691406 L 100.316406 104.910156 C 102.605469 108.796875 106.414062 110.847656 110.550781 110.335938 C 114.53125 109.84375 117.839844 107.097656 118.957031 103.296875 C 121.238281 95.636719 115.644531 89.523438 108.953125 87.4375 C 104.410156 86.015625 96.957031 86.140625 91.324219 89.71875 C 86.769531 92.632812 83.910156 97.402344 83.078125 103.566406 C 82.398438 108.59375 83.785156 113.5625 87.132812 117.894531 C 88.359375 119.476562 89.816406 120.949219 91.410156 122.21875 C 90.023438 122.425781 88.589844 122.703125 87.109375 123.089844 C 75.921875 126.003906 68.671875 133.308594 66.117188 144.1875 C 64.191406 152.46875 65.972656 161.707031 70.765625 168.308594 C 74.914062 173.992188 80.863281 177.292969 87.960938 177.886719 C 88.621094 177.941406 89.300781 177.972656 89.960938 177.980469 Z M 89.960938 177.980469 " fill-opacity="1" fill-rule="nonzero"/>

  <!-- Fast by Default text -->
  <text x="187.5" y="200" text-anchor="middle" font-family="Georgia, 'Times New Roman', serif" font-size="42" font-weight="bold" font-style="italic" fill="#014362" letter-spacing="-1">Fast</text>
  <text x="187.5" y="235" text-anchor="middle" font-family="Georgia, 'Times New Roman', serif" font-size="24" font-style="italic" fill="#014362" opacity="0.85">by Default</text>

</svg>